<?xml version="1.0" standalone="no"?><!DOCTYPE svg PUBLIC "-//W3C//DTD SVG 1.1//EN" "http://www.w3.org/Graphics/SVG/1.1/DTD/svg11.dtd"><svg t="1675061252613" class="icon" viewBox="0 0 1024 1024" version="1.1" xmlns="http://www.w3.org/2000/svg" p-id="9248" xmlns:xlink="http://www.w3.org/1999/xlink" width="200" height="200"><path d="M663.36768 484.70016l-193.7408 156.85632a61.97248 61.97248 0 0 1-87.18336-87.16288l156.8768-193.76128a55.78752 55.78752 0 0 0-3.93216-74.5472l-84.86912-84.8896c-13.39392-13.39392-12.9024-35.65568 1.16736-49.70496a36.90496 36.90496 0 0 1 24.22784-10.8544l372.40832-17.69472a49.8688 49.8688 0 0 1 52.736 52.736l-17.7152 372.40832a37.19168 37.19168 0 0 1-36.78208 35.1232c-9.0112 0-17.53088-3.4816-23.7568-9.728l-84.86912-84.86912a55.78752 55.78752 0 0 0-74.5472-3.91168zM299.15136 781.9264l502.3744 34.65216A40.96 40.96 0 0 1 839.68 857.43616V860.16a40.96 40.96 0 0 1-40.96 40.96H245.76a122.88 122.88 0 0 1-122.88-122.88V225.28a40.96 40.96 0 0 1 40.96-40.96h2.72384a40.96 40.96 0 0 1 40.8576 38.13376l34.65216 502.39488a61.44 61.44 0 0 0 57.07776 57.07776z" p-id="9249"></path></svg>