<?xml version="1.0" standalone="no"?><!DOCTYPE svg PUBLIC "-//W3C//DTD SVG 1.1//EN" "http://www.w3.org/Graphics/SVG/1.1/DTD/svg11.dtd"><svg t="1676113656587" class="icon" viewBox="0 0 1024 1024" version="1.1" xmlns="http://www.w3.org/2000/svg" p-id="13556" width="16" height="16" xmlns:xlink="http://www.w3.org/1999/xlink"><path d="M103.148983 912.896C-26.313874 799.012571-42.222446 204.873143 103.148983 87.771429 248.410697-29.257143 813.036983-29.257143 926.518126 87.771429c113.481143 117.065143 129.389714 628.370286 0 793.234285-129.389714 164.864-694.016 145.737143-823.442286 31.817143z m402.651428-498.651429L356.588983 294.875429a43.885714 43.885714 0 0 0-54.857143 68.534857l142.482286 113.993143-144.420572 129.974857a43.885714 43.885714 0 1 0 58.733715 65.243428l150.820571-135.753143q27.684571-24.905143 26.587429-62.134857-1.097143-37.229714-30.134858-60.489143z m224.036572 1.060572l-133.814857-118.966857a43.885714 43.885714 0 1 0-58.294857 65.609143L665.361554 475.428571l-127.634285 113.481143a43.885714 43.885714 0 1 0 58.294857 65.609143l133.851428-118.966857q26.989714-23.990857 26.989715-60.123429 0-36.132571-27.026286-60.123428z" fill="#2c2c2c" p-id="13557"></path></svg>